<svg width="45" height="45" viewBox="0 0 45 45" fill="none" xmlns="http://www.w3.org/2000/svg">
<path fill-rule="evenodd" clip-rule="evenodd" d="M12.4438 20.4966C7.71926 15.8078 7.71926 8.20557 12.4438 3.51668C17.1683 -1.17223 24.8281 -1.17223 29.5526 3.51668L33.8304 7.76216L33.6179 8.85634L33.6137 8.87527C33.6088 8.89762 33.5994 8.93796 33.5847 8.99527C33.5556 9.10986 33.5057 9.29216 33.4279 9.53379C33.2723 10.0171 33.006 10.7372 32.5734 11.6278C31.7094 13.4071 30.1797 15.873 27.536 18.4966C24.8926 21.1203 22.4081 22.6383 20.6155 23.4956C19.7184 23.9249 18.993 24.189 18.5059 24.3433C18.2627 24.4204 18.0789 24.4701 17.9634 24.499C17.9058 24.5134 17.8651 24.5227 17.8426 24.5277L17.8237 24.5317L16.7217 24.7424L12.4438 20.4966ZM25.656 5.45385C25.0043 4.80705 23.9478 4.80705 23.2961 5.45385C22.6444 6.10065 22.6444 7.14935 23.2961 7.79614L26.6338 11.1086C27.2855 11.7554 28.342 11.7554 28.9937 11.1086C29.6454 10.4618 29.6454 9.41315 28.9937 8.76635L25.656 5.45385Z" fill="#0084FF"/>
<path d="M36.6073 10.5417L36.6131 10.5239L40.9585 14.8367C45.683 19.5256 45.683 27.1278 40.9585 31.8166C36.2342 36.5055 28.5743 36.5055 23.8497 31.8166L19.5045 27.5041L19.5212 27.4988C20.1449 27.3012 21.0163 26.981 22.0645 26.4797C24.1628 25.4762 26.9633 23.7497 29.8962 20.8389C32.8291 17.9281 34.5687 15.1486 35.5802 13.066C36.0853 12.0256 36.4082 11.1607 36.6073 10.5417Z" fill="#0084FF"/>
<path d="M7.31085 19.0966C2.97249 21.2844 0 25.7558 0 30.9162C0 38.234 5.97726 44.1662 13.3506 44.1662C18.5502 44.1662 23.0556 41.2161 25.26 36.9105C23.9031 36.2069 22.6295 35.2898 21.4895 34.1585L10.0837 22.8386C8.94389 21.7073 8.01961 20.4432 7.31085 19.0966Z" fill="#0084FF"/>
</svg>
