<svg width="23" height="18" viewBox="0 0 23 18" fill="none" xmlns="http://www.w3.org/2000/svg">
<path d="M22.1625 4.22932L17.325 0.291819C16.9125 -0.0456813 16.3875 -0.0831812 15.9375 0.141819C15.4875 0.366819 15.1875 0.816819 15.1875 1.34182V4.41682H6.4125C2.8875 4.41682 0 7.41682 0 11.1293C0 14.8418 2.8875 17.8418 6.4125 17.8418H11.475C11.925 17.8418 12.3375 17.4668 12.3375 16.9793C12.3375 16.4918 11.9625 16.1168 11.475 16.1168H6.4125C3.7875 16.1168 1.6875 13.8668 1.6875 11.0918C1.6875 8.31682 3.825 6.06682 6.4125 6.06682H15.1875V9.14182C15.1875 9.66682 15.4875 10.1168 15.9375 10.3418C16.125 10.4168 16.3125 10.4543 16.5 10.4543C16.8 10.4543 17.1 10.3418 17.325 10.1543L22.1625 6.25432C22.4625 5.99182 22.65 5.61682 22.65 5.24182C22.6875 4.82932 22.5 4.45432 22.1625 4.22932ZM16.875 8.39182V2.09182L20.775 5.24182L16.875 8.39182Z" fill="white"/>
</svg>
