<svg width="131" height="23" viewBox="0 0 131 23" fill="none" xmlns="http://www.w3.org/2000/svg">
<path d="M128.945 3.948C129.18 3.948 129.431 3.96367 129.697 3.995C129.979 4.01066 130.222 4.042 130.426 4.089L130.167 5.9925C129.964 5.9455 129.736 5.90633 129.486 5.875C129.251 5.84366 129.024 5.828 128.804 5.828C128.319 5.828 127.856 5.92983 127.418 6.1335C126.979 6.33716 126.587 6.627 126.243 7.003C125.898 7.36333 125.624 7.802 125.42 8.319C125.232 8.836 125.138 9.41566 125.138 10.058V16.779H123.07V4.183H124.762L124.997 6.486H125.091C125.358 6.016 125.679 5.593 126.055 5.217C126.431 4.82533 126.862 4.51983 127.347 4.3005C127.833 4.0655 128.366 3.948 128.945 3.948Z" fill="#0084FF"/>
<path d="M114.67 3.948C115.751 3.948 116.675 4.183 117.443 4.653C118.226 5.123 118.822 5.78883 119.229 6.6505C119.652 7.4965 119.864 8.49133 119.864 9.635V10.8805H111.239C111.27 12.3062 111.631 13.395 112.32 14.147C113.025 14.8833 114.004 15.2515 115.258 15.2515C116.057 15.2515 116.762 15.181 117.373 15.04C117.999 14.8833 118.642 14.664 119.3 14.382V16.1915C118.657 16.4735 118.023 16.6772 117.396 16.8025C116.769 16.9435 116.025 17.014 115.164 17.014C113.973 17.014 112.915 16.7712 111.991 16.2855C111.082 15.7998 110.37 15.0792 109.853 14.1235C109.351 13.1522 109.101 11.9693 109.101 10.575C109.101 9.19633 109.328 8.0135 109.782 7.0265C110.252 6.0395 110.902 5.27966 111.733 4.747C112.579 4.21433 113.558 3.948 114.67 3.948ZM114.647 5.64C113.66 5.64 112.876 5.96116 112.297 6.6035C111.733 7.23016 111.396 8.1075 111.286 9.2355H117.702C117.702 8.51483 117.592 7.88817 117.373 7.3555C117.153 6.82283 116.816 6.40766 116.362 6.11C115.923 5.79666 115.352 5.64 114.647 5.64Z" fill="#0084FF"/>
<path d="M105.521 15.3221C105.834 15.3221 106.155 15.2986 106.484 15.2516C106.813 15.1889 107.08 15.1263 107.283 15.0636V16.6381C107.064 16.7478 106.751 16.8339 106.343 16.8966C105.936 16.9749 105.544 17.0141 105.168 17.0141C104.51 17.0141 103.899 16.9044 103.335 16.6851C102.787 16.4501 102.341 16.0506 101.996 15.4866C101.651 14.9226 101.479 14.1314 101.479 13.1131V5.7811H99.6929V4.7941L101.502 3.9716L102.325 1.2926H103.547V4.1831H107.189V5.7811H103.547V13.0661C103.547 13.8338 103.727 14.4056 104.087 14.7816C104.463 15.1419 104.941 15.3221 105.521 15.3221Z" fill="#0084FF"/>
<path d="M98.271 13.301C98.271 14.1157 98.0673 14.7972 97.66 15.3455C97.2527 15.8938 96.673 16.309 95.921 16.591C95.169 16.873 94.276 17.014 93.242 17.014C92.3647 17.014 91.6048 16.9435 90.9625 16.8025C90.3358 16.6615 89.7797 16.4657 89.294 16.215V14.335C89.7953 14.5857 90.3985 14.8207 91.1035 15.04C91.8242 15.2437 92.5527 15.3455 93.289 15.3455C94.3387 15.3455 95.0985 15.181 95.5685 14.852C96.0385 14.5073 96.2735 14.053 96.2735 13.489C96.2735 13.1757 96.1873 12.8937 96.015 12.643C95.8427 12.3923 95.5293 12.1417 95.075 11.891C94.6363 11.6403 94.0018 11.3583 93.1715 11.045C92.3568 10.7317 91.6597 10.4183 91.08 10.105C90.5003 9.79167 90.0538 9.41566 89.7405 8.977C89.4272 8.53833 89.2705 7.97433 89.2705 7.285C89.2705 6.21966 89.7013 5.39716 90.563 4.8175C91.4403 4.23783 92.584 3.948 93.994 3.948C94.7617 3.948 95.4745 4.02633 96.1325 4.183C96.8062 4.324 97.4328 4.52766 98.0125 4.794L97.3075 6.439C96.9628 6.28233 96.5947 6.14916 96.203 6.0395C95.827 5.91416 95.4432 5.82016 95.0515 5.7575C94.6598 5.67916 94.2603 5.64 93.853 5.64C93.007 5.64 92.3568 5.781 91.9025 6.063C91.4638 6.32933 91.2445 6.6975 91.2445 7.1675C91.2445 7.51217 91.3463 7.80983 91.55 8.0605C91.7537 8.2955 92.0905 8.5305 92.5605 8.7655C93.0462 8.98483 93.6885 9.25116 94.4875 9.5645C95.2865 9.86216 95.968 10.1677 96.532 10.481C97.096 10.7943 97.5268 11.1782 97.8245 11.6325C98.1222 12.0712 98.271 12.6273 98.271 13.301Z" fill="#0084FF"/>
<path d="M81.667 3.97156C83.2023 3.97156 84.3381 4.30839 85.0745 4.98206C85.8108 5.65572 86.179 6.72889 86.179 8.20156V16.7791H84.675L84.2755 14.9931H84.1815C83.8211 15.4474 83.4451 15.8312 83.0535 16.1446C82.6775 16.4422 82.2388 16.6616 81.7375 16.8026C81.2518 16.9436 80.6565 17.0141 79.9515 17.0141C79.1995 17.0141 78.518 16.8809 77.907 16.6146C77.3116 16.3482 76.8416 15.9409 76.497 15.3926C76.1523 14.8286 75.98 14.1236 75.98 13.2776C75.98 12.0242 76.4735 11.0607 77.4605 10.3871C78.4475 9.69772 79.9671 9.32172 82.0195 9.25906L84.158 9.18856V8.43656C84.158 7.38689 83.9308 6.65839 83.4765 6.25106C83.0221 5.84372 82.3798 5.64006 81.5495 5.64006C80.8915 5.64006 80.2648 5.74189 79.6695 5.94556C79.0741 6.13356 78.518 6.35289 78.001 6.60356L77.3665 5.05256C77.9148 4.75489 78.565 4.50422 79.317 4.30056C80.069 4.08122 80.8523 3.97156 81.667 3.97156ZM82.278 10.6926C80.7113 10.7552 79.6225 11.0059 79.0115 11.4446C78.4161 11.8832 78.1185 12.5021 78.1185 13.3011C78.1185 14.0061 78.33 14.5231 78.753 14.8521C79.1916 15.1811 79.7478 15.3456 80.4215 15.3456C81.4868 15.3456 82.372 15.0557 83.077 14.4761C83.782 13.8807 84.1345 12.9721 84.1345 11.7501V10.6221L82.278 10.6926Z" fill="#0084FF"/>
<path d="M63.2609 16.779L57.7384 2.068H57.6444C57.6757 2.38133 57.6992 2.78083 57.7149 3.2665C57.7462 3.75217 57.7697 4.28483 57.7854 4.8645C57.8011 5.4285 57.8089 6.00817 57.8089 6.6035V16.779H55.8584V0H58.9839L64.1539 13.7475H64.2479L69.5119 0H72.6139V16.779H70.5224V6.4625C70.5224 5.91417 70.5302 5.37367 70.5459 4.841C70.5616 4.29267 70.5851 3.7835 70.6164 3.3135C70.6477 2.82783 70.6712 2.4205 70.6869 2.0915H70.5929L64.9999 16.779H63.2609Z" fill="#0084FF"/>
<path d="M45.5836 3.948C46.4139 3.948 47.1581 4.10467 47.8161 4.418C48.4897 4.73133 49.0616 5.20916 49.5316 5.8515H49.6491L49.9311 4.183H51.5761V16.9905C51.5761 18.1812 51.3724 19.176 50.9651 19.975C50.5577 20.7897 49.9389 21.4007 49.1086 21.808C48.2782 22.2153 47.2207 22.419 45.9361 22.419C45.0274 22.419 44.1892 22.3485 43.4216 22.2075C42.6696 22.0822 41.9959 21.8863 41.4006 21.62V19.7165C41.8079 19.9202 42.2544 20.0925 42.7401 20.2335C43.2257 20.3902 43.7506 20.5077 44.3146 20.586C44.8786 20.6643 45.4582 20.7035 46.0536 20.7035C47.1346 20.7035 47.9806 20.3823 48.5916 19.74C49.2182 19.1133 49.5316 18.2517 49.5316 17.155V16.6615C49.5316 16.4735 49.5394 16.2072 49.5551 15.8625C49.5707 15.5022 49.5864 15.2515 49.6021 15.1105H49.5081C49.0694 15.7528 48.5211 16.2307 47.8631 16.544C47.2207 16.8573 46.4687 17.014 45.6071 17.014C43.9777 17.014 42.7009 16.4422 41.7766 15.2985C40.8679 14.1548 40.4136 12.5568 40.4136 10.5045C40.4136 9.15717 40.6172 7.99783 41.0246 7.0265C41.4476 6.0395 42.0429 5.27966 42.8106 4.747C43.5782 4.21433 44.5026 3.948 45.5836 3.948ZM45.8656 5.687C45.1606 5.687 44.5574 5.875 44.0561 6.251C43.5704 6.627 43.1944 7.17533 42.9281 7.896C42.6774 8.61666 42.5521 9.494 42.5521 10.528C42.5521 12.079 42.8341 13.2697 43.3981 14.1C43.9777 14.9147 44.8159 15.322 45.9126 15.322C46.5549 15.322 47.1032 15.2437 47.5576 15.087C48.0119 14.9147 48.3879 14.6562 48.6856 14.3115C48.9832 13.9512 49.2026 13.4968 49.3436 12.9485C49.4846 12.4002 49.5551 11.75 49.5551 10.998V10.5045C49.5551 9.36083 49.4219 8.4365 49.1556 7.7315C48.9049 7.0265 48.5054 6.5095 47.9571 6.1805C47.4087 5.8515 46.7116 5.687 45.8656 5.687Z" fill="#0084FF"/>
<path d="M37.1197 4.18311V16.7791H35.4277L35.1222 15.1106H35.0282C34.7619 15.5493 34.4172 15.9096 33.9942 16.1916C33.5712 16.4736 33.109 16.6773 32.6077 16.8026C32.1063 16.9436 31.5815 17.0141 31.0332 17.0141C30.0305 17.0141 29.1845 16.8574 28.4952 16.5441C27.8215 16.2151 27.3124 15.7138 26.9677 15.0401C26.623 14.3664 26.4507 13.4969 26.4507 12.4316V4.18311H28.5422V12.2906C28.5422 13.2933 28.7693 14.0453 29.2237 14.5466C29.678 15.0479 30.383 15.2986 31.3387 15.2986C32.2787 15.2986 33.015 15.1263 33.5477 14.7816C34.096 14.4213 34.4798 13.9043 34.6992 13.2306C34.9342 12.5413 35.0517 11.7109 35.0517 10.7396V4.18311H37.1197Z" fill="#0084FF"/>
<path d="M22.7593 3.948C22.9943 3.948 23.2449 3.96367 23.5113 3.995C23.7933 4.01066 24.0361 4.042 24.2398 4.089L23.9813 5.9925C23.7776 5.9455 23.5504 5.90633 23.2998 5.875C23.0648 5.84366 22.8376 5.828 22.6183 5.828C22.1326 5.828 21.6704 5.92983 21.2318 6.1335C20.7931 6.33716 20.4014 6.627 20.0568 7.003C19.7121 7.36333 19.4379 7.802 19.2343 8.319C19.0463 8.836 18.9523 9.41566 18.9523 10.058V16.779H16.8843V4.183H18.5763L18.8113 6.486H18.9053C19.1716 6.016 19.4928 5.593 19.8688 5.217C20.2448 4.82533 20.6756 4.51983 21.1613 4.3005C21.6469 4.0655 22.1796 3.948 22.7593 3.948Z" fill="#0084FF"/>
<path d="M13.442 8.225C13.442 10.105 13.0895 11.6795 12.3845 12.9485C11.6952 14.2175 10.7003 15.1732 9.4 15.8155C8.09967 16.4578 6.52517 16.779 4.6765 16.779H0V0H5.17C6.862 0 8.32683 0.313334 9.5645 0.940001C10.8022 1.56667 11.7578 2.491 12.4315 3.713C13.1052 4.91933 13.442 6.42333 13.442 8.225ZM11.2095 8.2955C11.2095 6.80717 10.9588 5.58517 10.4575 4.6295C9.97183 3.67383 9.25117 2.96883 8.2955 2.5145C7.3555 2.0445 6.21183 1.8095 4.8645 1.8095H2.115V14.9695H4.3945C6.66617 14.9695 8.366 14.4133 9.494 13.301C10.6377 12.173 11.2095 10.5045 11.2095 8.2955Z" fill="#0084FF"/>
</svg>
