<svg width="211" height="45" viewBox="0 0 211 45" fill="none" xmlns="http://www.w3.org/2000/svg">
<path fill-rule="evenodd" clip-rule="evenodd" d="M12.4438 20.4966C7.71926 15.8078 7.71926 8.20557 12.4438 3.51668C17.1683 -1.17223 24.8281 -1.17223 29.5526 3.51668L33.8304 7.76216L33.6179 8.85634L33.6137 8.87527C33.6088 8.89762 33.5994 8.93796 33.5847 8.99527C33.5556 9.10986 33.5057 9.29216 33.4279 9.53379C33.2723 10.0171 33.006 10.7372 32.5734 11.6278C31.7094 13.4071 30.1797 15.873 27.536 18.4966C24.8926 21.1203 22.4081 22.6383 20.6155 23.4956C19.7184 23.9249 18.993 24.189 18.5059 24.3433C18.2627 24.4204 18.0789 24.4701 17.9634 24.499C17.9058 24.5134 17.8651 24.5227 17.8426 24.5277L17.8237 24.5317L16.7217 24.7424L12.4438 20.4966ZM25.656 5.45385C25.0043 4.80705 23.9478 4.80705 23.2961 5.45385C22.6444 6.10065 22.6444 7.14935 23.2961 7.79614L26.6338 11.1086C27.2855 11.7554 28.342 11.7554 28.9937 11.1086C29.6454 10.4618 29.6454 9.41315 28.9937 8.76635L25.656 5.45385Z" fill="#0084FF"/>
<path d="M36.6073 10.5417L36.6131 10.5239L40.9585 14.8367C45.683 19.5256 45.683 27.1278 40.9585 31.8166C36.2342 36.5055 28.5743 36.5055 23.8497 31.8166L19.5045 27.5041L19.5212 27.4988C20.1449 27.3012 21.0163 26.981 22.0645 26.4797C24.1628 25.4762 26.9633 23.7497 29.8962 20.8389C32.8291 17.9281 34.5687 15.1486 35.5802 13.066C36.0853 12.0256 36.4082 11.1607 36.6073 10.5417Z" fill="#0084FF"/>
<path d="M7.31085 19.0966C2.97249 21.2844 0 25.7558 0 30.9162C0 38.234 5.97726 44.1662 13.3506 44.1662C18.5502 44.1662 23.0556 41.2161 25.26 36.9105C23.9031 36.2069 22.6295 35.2898 21.4895 34.1585L10.0837 22.8386C8.94389 21.7073 8.01961 20.4432 7.31085 19.0966Z" fill="#0084FF"/>
<path d="M66.7597 14.9394C68.9749 14.9394 70.5889 15.3712 71.6015 16.2349C72.6142 17.0986 73.1205 18.3156 73.1205 19.886C73.1205 20.577 73.0019 21.2444 72.7645 21.8882C72.543 22.5164 72.1712 23.0817 71.649 23.5842C71.1268 24.0868 70.4306 24.4872 69.5604 24.7856C68.6901 25.0682 67.6221 25.2096 66.3562 25.2096H64.41V31.758H62.2739V14.9394H66.7597ZM66.5698 16.7531H64.41V23.3958H66.1189C67.1949 23.3958 68.0888 23.2859 68.8009 23.066C69.5129 22.8305 70.043 22.4614 70.3911 21.9589C70.7392 21.4564 70.9132 20.7968 70.9132 19.9802C70.9132 18.8967 70.5651 18.0879 69.8689 17.554C69.1727 17.0201 68.073 16.7531 66.5698 16.7531Z" fill="#0084FF"/>
<path d="M78.4482 19.1087C78.4482 19.4071 78.4323 19.7133 78.4007 20.0273C78.3849 20.3414 78.3611 20.6241 78.3295 20.8754H78.4719C78.7409 20.4356 79.0811 20.0745 79.4925 19.7918C79.9039 19.5091 80.3627 19.2971 80.8691 19.1558C81.3754 18.9988 81.8976 18.9202 82.4355 18.9202C83.464 18.9202 84.3185 19.0851 84.9988 19.4149C85.6951 19.729 86.2172 20.2236 86.5653 20.8989C86.9134 21.5742 87.0875 22.4536 87.0875 23.5371V31.758H85.0226V23.6785C85.0226 22.6577 84.7931 21.8961 84.3343 21.3936C83.8754 20.8911 83.1555 20.6398 82.1745 20.6398C81.2251 20.6398 80.4814 20.8204 79.9434 21.1816C79.4054 21.5271 79.0178 22.0453 78.7804 22.7362C78.5589 23.4115 78.4482 24.2438 78.4482 25.2331V31.758H76.3595V13.8558H78.4482V19.1087Z" fill="#0084FF"/>
<path d="M95.8493 18.9202C97.4 18.9202 98.5472 19.2579 99.2908 19.9331C100.035 20.6084 100.406 21.6841 100.406 23.1602V31.758H98.8874L98.4839 29.9678H98.3889C98.025 30.4232 97.6453 30.8079 97.2497 31.122C96.8699 31.4204 96.4269 31.6402 95.9206 31.7816C95.43 31.9229 94.8288 31.9936 94.1167 31.9936C93.3572 31.9936 92.6689 31.8601 92.0518 31.5931C91.4506 31.3262 90.9759 30.9179 90.6278 30.3682C90.2797 29.8029 90.1056 29.0962 90.1056 28.2482C90.1056 26.9919 90.6041 26.0262 91.6009 25.3509C92.5977 24.6599 94.1326 24.2831 96.2054 24.2202L98.3652 24.1496V23.3958C98.3652 22.3436 98.1358 21.6134 97.6769 21.2051C97.218 20.7968 96.5693 20.5927 95.7307 20.5927C95.0661 20.5927 94.4332 20.6948 93.8319 20.8989C93.2307 21.0874 92.6689 21.3072 92.1468 21.5585L91.506 20.0038C92.0598 19.7054 92.7164 19.4542 93.4759 19.25C94.2354 19.0302 95.0266 18.9202 95.8493 18.9202ZM96.4664 25.6571C94.8842 25.7199 93.7845 25.9712 93.1674 26.4109C92.5661 26.8506 92.2655 27.4709 92.2655 28.2718C92.2655 28.9785 92.4791 29.4967 92.9063 29.8265C93.3493 30.1562 93.911 30.3211 94.5914 30.3211C95.6674 30.3211 96.5614 30.0306 97.2734 29.4496C97.9854 28.8528 98.3415 27.942 98.3415 26.7171V25.5865L96.4664 25.6571Z" fill="#0084FF"/>
<path d="M110.269 18.8967C110.506 18.8967 110.76 18.9124 111.029 18.9438C111.313 18.9595 111.559 18.9909 111.764 19.038L111.503 20.946C111.298 20.8989 111.068 20.8596 110.815 20.8282C110.578 20.7968 110.348 20.7811 110.127 20.7811C109.636 20.7811 109.169 20.8832 108.726 21.0874C108.283 21.2915 107.888 21.582 107.54 21.9589C107.192 22.3201 106.915 22.7598 106.709 23.278C106.519 23.7962 106.424 24.3773 106.424 25.0211V31.758H104.336V19.1322H106.044L106.282 21.4407H106.377C106.646 20.9696 106.97 20.5456 107.35 20.1687C107.73 19.7761 108.165 19.4699 108.655 19.25C109.146 19.0145 109.684 18.8967 110.269 18.8967Z" fill="#0084FF"/>
<path d="M128.096 18.8967C129.536 18.8967 130.611 19.2657 131.324 20.0038C132.036 20.7262 132.392 21.9039 132.392 23.5371V31.758H130.327V23.6314C130.327 22.642 130.113 21.8961 129.686 21.3936C129.274 20.8911 128.626 20.6398 127.74 20.6398C126.505 20.6398 125.619 20.9931 125.081 21.6998C124.559 22.4065 124.298 23.4351 124.298 24.7856V31.758H122.233V23.6314C122.233 22.9718 122.138 22.4222 121.948 21.9825C121.759 21.5271 121.474 21.1894 121.094 20.9696C120.714 20.7497 120.224 20.6398 119.622 20.6398C118.768 20.6398 118.096 20.8204 117.605 21.1816C117.115 21.5271 116.759 22.0374 116.537 22.7127C116.331 23.3879 116.228 24.2202 116.228 25.2096V31.758H114.14V19.1322H115.825L116.134 20.8518H116.252C116.521 20.4121 116.846 20.0509 117.225 19.7682C117.621 19.4699 118.056 19.25 118.531 19.1087C119.005 18.9674 119.496 18.8967 120.002 18.8967C120.983 18.8967 121.798 19.0694 122.447 19.4149C123.111 19.7604 123.594 20.2943 123.895 21.0167H124.013C124.441 20.2943 125.018 19.7604 125.746 19.4149C126.49 19.0694 127.273 18.8967 128.096 18.8967Z" fill="#0084FF"/>
<path d="M141.139 18.9202C142.69 18.9202 143.837 19.2579 144.581 19.9331C145.325 20.6084 145.696 21.6841 145.696 23.1602V31.758H144.177L143.774 29.9678H143.679C143.315 30.4232 142.935 30.8079 142.54 31.122C142.16 31.4204 141.717 31.6402 141.211 31.7816C140.72 31.9229 140.119 31.9936 139.407 31.9936C138.647 31.9936 137.959 31.8601 137.342 31.5931C136.741 31.3262 136.266 30.9179 135.918 30.3682C135.57 29.8029 135.396 29.0962 135.396 28.2482C135.396 26.9919 135.894 26.0262 136.891 25.3509C137.888 24.6599 139.423 24.2831 141.495 24.2202L143.655 24.1496V23.3958C143.655 22.3436 143.426 21.6134 142.967 21.2051C142.508 20.7968 141.859 20.5927 141.021 20.5927C140.356 20.5927 139.723 20.6948 139.122 20.8989C138.521 21.0874 137.959 21.3072 137.437 21.5585L136.796 20.0038C137.35 19.7054 138.006 19.4542 138.766 19.25C139.525 19.0302 140.317 18.9202 141.139 18.9202ZM141.756 25.6571C140.174 25.7199 139.074 25.9712 138.457 26.4109C137.856 26.8506 137.555 27.4709 137.555 28.2718C137.555 28.9785 137.769 29.4967 138.196 29.8265C138.639 30.1562 139.201 30.3211 139.881 30.3211C140.957 30.3211 141.851 30.0306 142.563 29.4496C143.275 28.8528 143.631 27.942 143.631 26.7171V25.5865L141.756 25.6571Z" fill="#0084FF"/>
<path d="M157.173 16.5647C156.271 16.5647 155.456 16.7217 154.728 17.0358C154.001 17.3342 153.383 17.7817 152.877 18.3785C152.371 18.9595 151.983 19.674 151.714 20.522C151.445 21.3543 151.311 22.2965 151.311 23.3487C151.311 24.7306 151.524 25.9319 151.951 26.9527C152.395 27.9734 153.043 28.7586 153.898 29.3082C154.768 29.8579 155.852 30.1327 157.149 30.1327C157.893 30.1327 158.597 30.0699 159.262 29.9442C159.926 29.8186 160.575 29.6616 161.208 29.4731V31.3105C160.575 31.546 159.918 31.7188 159.238 31.8287C158.573 31.9386 157.774 31.9936 156.841 31.9936C155.116 31.9936 153.676 31.6402 152.521 30.9336C151.366 30.2269 150.496 29.2219 149.91 27.9185C149.341 26.6151 149.056 25.0839 149.056 23.3251C149.056 22.0531 149.23 20.8911 149.578 19.8389C149.942 18.7868 150.464 17.8759 151.145 17.1065C151.841 16.337 152.695 15.7481 153.708 15.3398C154.72 14.9158 155.883 14.7038 157.197 14.7038C158.067 14.7038 158.906 14.7902 159.713 14.9629C160.52 15.1356 161.24 15.3791 161.872 15.6931L161.018 17.4834C160.496 17.2478 159.91 17.0358 159.262 16.8474C158.629 16.6589 157.933 16.5647 157.173 16.5647Z" fill="#0084FF"/>
<path d="M166.71 31.758H164.622V13.8558H166.71V31.758Z" fill="#0084FF"/>
<path d="M181.801 25.4216C181.801 26.4737 181.659 27.4081 181.374 28.2247C181.105 29.0256 180.709 29.7087 180.187 30.274C179.681 30.8394 179.056 31.2712 178.312 31.5696C177.584 31.8522 176.769 31.9936 175.867 31.9936C175.029 31.9936 174.253 31.8522 173.541 31.5696C172.829 31.2712 172.212 30.8394 171.69 30.274C171.168 29.7087 170.757 29.0256 170.456 28.2247C170.171 27.4081 170.029 26.4737 170.029 25.4216C170.029 24.0239 170.266 22.8462 170.741 21.8882C171.215 20.9146 171.896 20.1765 172.782 19.674C173.668 19.1558 174.72 18.8967 175.939 18.8967C177.094 18.8967 178.106 19.1558 178.977 19.674C179.863 20.1765 180.551 20.9146 181.041 21.8882C181.548 22.8462 181.801 24.0239 181.801 25.4216ZM172.189 25.4216C172.189 26.4109 172.315 27.2746 172.568 28.0127C172.837 28.7351 173.249 29.2925 173.802 29.6851C174.356 30.0777 175.06 30.274 175.915 30.274C176.769 30.274 177.473 30.0777 178.027 29.6851C178.581 29.2925 178.985 28.7351 179.238 28.0127C179.507 27.2746 179.641 26.4109 179.641 25.4216C179.641 24.4165 179.507 23.5607 179.238 22.854C178.969 22.1474 178.557 21.6056 178.003 21.2287C177.465 20.8361 176.761 20.6398 175.891 20.6398C174.594 20.6398 173.652 21.0638 173.067 21.9118C172.481 22.7598 172.189 23.9297 172.189 25.4216Z" fill="#0084FF"/>
<path d="M195.744 19.1322V31.758H194.035L193.727 30.0856H193.632C193.363 30.5253 193.015 30.8865 192.588 31.1691C192.16 31.4518 191.694 31.6559 191.187 31.7816C190.681 31.9229 190.151 31.9936 189.597 31.9936C188.584 31.9936 187.73 31.8365 187.034 31.5225C186.353 31.1927 185.839 30.6902 185.491 30.0149C185.143 29.3396 184.969 28.4681 184.969 27.4002V19.1322H187.081V27.2589C187.081 28.2639 187.311 29.0177 187.769 29.5202C188.228 30.0228 188.94 30.274 189.906 30.274C190.855 30.274 191.599 30.1013 192.137 29.7558C192.69 29.3946 193.078 28.8764 193.3 28.2011C193.537 27.5102 193.656 26.6779 193.656 25.7042V19.1322H195.744Z" fill="#0084FF"/>
<path d="M204.292 31.9936C202.71 31.9936 201.444 31.4518 200.495 30.3682C199.546 29.269 199.071 27.6358 199.071 25.4687C199.071 23.3016 199.546 21.6684 200.495 20.5691C201.46 19.4542 202.734 18.8967 204.316 18.8967C204.981 18.8967 205.558 18.9831 206.049 19.1558C206.539 19.3128 206.967 19.5327 207.33 19.8153C207.694 20.098 208.003 20.4121 208.256 20.7576H208.398C208.383 20.5534 208.351 20.2551 208.304 19.8625C208.272 19.4542 208.256 19.1322 208.256 18.8967V13.8558H210.345V31.758H208.66L208.351 30.062H208.256C208.003 30.4232 207.694 30.753 207.33 31.0513C206.967 31.334 206.531 31.5617 206.025 31.7345C205.535 31.9072 204.957 31.9936 204.292 31.9936ZM204.625 30.274C205.97 30.274 206.911 29.9128 207.449 29.1905C208.003 28.4524 208.28 27.3453 208.28 25.8691V25.4922C208.28 23.9219 208.019 22.7205 207.497 21.8882C206.974 21.0402 206.009 20.6162 204.601 20.6162C203.478 20.6162 202.631 21.0638 202.061 21.9589C201.508 22.8383 201.231 24.0239 201.231 25.5158C201.231 27.0234 201.508 28.1933 202.061 29.0256C202.631 29.8579 203.485 30.274 204.625 30.274Z" fill="#0084FF"/>
</svg>
