<svg width="149" height="19" viewBox="0 0 149 19" fill="none" xmlns="http://www.w3.org/2000/svg">
<path d="M4.4858 1.08356C6.70101 1.08356 8.31494 1.51541 9.32761 2.37911C10.3403 3.24282 10.8466 4.45985 10.8466 6.03022C10.8466 6.72119 10.7279 7.38859 10.4906 8.03244C10.2691 8.66059 9.89723 9.22593 9.37508 9.72845C8.85292 10.231 8.15671 10.6314 7.28645 10.9298C6.41619 11.2124 5.34815 11.3538 4.08231 11.3538H2.13609V17.9022H0V1.08356H4.4858ZM4.29592 2.89733H2.13609V9.54H3.84497C4.92093 9.54 5.81492 9.43007 6.52695 9.21022C7.23899 8.97467 7.76905 8.60563 8.11716 8.10311C8.46526 7.60059 8.63931 6.94104 8.63931 6.12445C8.63931 5.04089 8.29121 4.23215 7.595 3.69822C6.89879 3.1643 5.7991 2.89733 4.29592 2.89733Z" fill="#0084FF"/>
<path d="M16.1742 5.25289C16.1742 5.55126 16.1584 5.85748 16.1268 6.17156C16.1109 6.48563 16.0872 6.7683 16.0556 7.01956H16.198C16.467 6.57985 16.8072 6.21867 17.2185 5.936C17.6299 5.65333 18.0888 5.44133 18.5951 5.3C19.1015 5.14296 19.6236 5.06445 20.1616 5.06445C21.1901 5.06445 22.0445 5.22933 22.7249 5.55911C23.4211 5.87319 23.9433 6.36785 24.2914 7.04311C24.6395 7.71837 24.8135 8.59778 24.8135 9.68133V17.9022H22.7487V9.82267C22.7487 8.80193 22.5192 8.0403 22.0604 7.53778C21.6015 7.03526 20.8816 6.784 19.9005 6.784C18.9512 6.784 18.2075 6.96459 17.6695 7.32578C17.1315 7.67126 16.7439 8.18948 16.5065 8.88045C16.285 9.55571 16.1742 10.388 16.1742 11.3773V17.9022H14.0856V0H16.1742V5.25289Z" fill="#0084FF"/>
<path d="M33.5754 5.06445C35.1261 5.06445 36.2732 5.40207 37.0169 6.07733C37.7606 6.75259 38.1324 7.8283 38.1324 9.30445V17.9022H36.6134L36.2099 16.112H36.115C35.7511 16.5674 35.3713 16.9522 34.9758 17.2662C34.596 17.5646 34.153 17.7844 33.6466 17.9258C33.1561 18.0671 32.5548 18.1378 31.8428 18.1378C31.0833 18.1378 30.395 18.0043 29.7779 17.7373C29.1767 17.4704 28.702 17.0621 28.3539 16.5124C28.0058 15.9471 27.8317 15.2404 27.8317 14.3924C27.8317 13.1361 28.3301 12.1704 29.327 11.4951C30.3238 10.8041 31.8586 10.4273 33.9314 10.3644L36.0913 10.2938V9.54C36.0913 8.48785 35.8618 7.75763 35.403 7.34933C34.9441 6.94104 34.2954 6.73689 33.4568 6.73689C32.7922 6.73689 32.1593 6.83896 31.558 7.04311C30.9567 7.23156 30.395 7.45141 29.8729 7.70267L29.232 6.148C29.7858 5.84963 30.4425 5.59837 31.202 5.39422C31.9615 5.17437 32.7526 5.06445 33.5754 5.06445ZM34.1925 11.8013C32.6102 11.8641 31.5105 12.1154 30.8934 12.5551C30.2922 12.9948 29.9915 13.6151 29.9915 14.416C29.9915 15.1227 30.2051 15.6409 30.6324 15.9707C31.0754 16.3004 31.6371 16.4653 32.3175 16.4653C33.3935 16.4653 34.2875 16.1748 34.9995 15.5938C35.7115 14.997 36.0675 14.0862 36.0675 12.8613V11.7307L34.1925 11.8013Z" fill="#0084FF"/>
<path d="M47.9952 5.04089C48.2325 5.04089 48.4857 5.05659 48.7547 5.088C49.0395 5.1037 49.2847 5.13511 49.4904 5.18222L49.2294 7.09022C49.0237 7.04311 48.7942 7.00385 48.5411 6.97245C48.3037 6.94104 48.0743 6.92533 47.8528 6.92533C47.3623 6.92533 46.8955 7.02741 46.4524 7.23156C46.0094 7.4357 45.6138 7.72622 45.2657 8.10311C44.9176 8.4643 44.6407 8.904 44.435 9.42222C44.2451 9.94044 44.1502 10.5215 44.1502 11.1653V17.9022H42.0616V5.27645H43.7705L44.0078 7.58489H44.1027C44.3717 7.11378 44.6961 6.68978 45.0758 6.31289C45.4556 5.9203 45.8907 5.61407 46.3812 5.39422C46.8717 5.15867 47.4097 5.04089 47.9952 5.04089Z" fill="#0084FF"/>
<path d="M65.8217 5.04089C67.2616 5.04089 68.3376 5.40993 69.0496 6.148C69.7616 6.87037 70.1176 8.04815 70.1176 9.68133V17.9022H68.0528V9.77556C68.0528 8.78622 67.8391 8.0403 67.4119 7.53778C67.0005 7.03526 66.3518 6.784 65.4657 6.784C64.2315 6.784 63.3454 7.13733 62.8075 7.844C62.2853 8.55067 62.0242 9.57926 62.0242 10.9298V17.9022H59.9593V9.77556C59.9593 9.116 59.8644 8.56637 59.6745 8.12667C59.4846 7.67126 59.1998 7.33363 58.8201 7.11378C58.4403 6.89393 57.9498 6.784 57.3486 6.784C56.4941 6.784 55.8216 6.96459 55.3311 7.32578C54.8406 7.67126 54.4846 8.18163 54.2631 8.85689C54.0574 9.53215 53.9545 10.3644 53.9545 11.3538V17.9022H51.8659V5.27645H53.5511L53.8596 6.996H53.9783C54.2473 6.5563 54.5716 6.19511 54.9514 5.91245C55.347 5.61408 55.7821 5.39422 56.2568 5.25289C56.7315 5.11156 57.222 5.04089 57.7283 5.04089C58.7093 5.04089 59.5242 5.21363 60.173 5.55911C60.8375 5.90459 61.3201 6.43852 61.6207 7.16089H61.7394C62.1666 6.43852 62.7442 5.90459 63.472 5.55911C64.2157 5.21363 64.9989 5.04089 65.8217 5.04089Z" fill="#0084FF"/>
<path d="M78.8654 5.06445C80.4161 5.06445 81.5632 5.40207 82.3069 6.07733C83.0506 6.75259 83.4224 7.8283 83.4224 9.30445V17.9022H81.9034L81.5 16.112H81.405C81.0411 16.5674 80.6613 16.9522 80.2658 17.2662C79.886 17.5646 79.443 17.7844 78.9366 17.9258C78.4461 18.0671 77.8449 18.1378 77.1328 18.1378C76.3733 18.1378 75.685 18.0043 75.0679 17.7373C74.4667 17.4704 73.992 17.0621 73.6439 16.5124C73.2958 15.9471 73.1217 15.2404 73.1217 14.3924C73.1217 13.1361 73.6201 12.1704 74.617 11.4951C75.6138 10.8041 77.1486 10.4273 79.2215 10.3644L81.3813 10.2938V9.54C81.3813 8.48785 81.1518 7.75763 80.693 7.34933C80.2341 6.94104 79.5854 6.73689 78.7468 6.73689C78.0822 6.73689 77.4493 6.83896 76.848 7.04311C76.2467 7.23156 75.685 7.45141 75.1629 7.70267L74.522 6.148C75.0758 5.84963 75.7325 5.59837 76.492 5.39422C77.2515 5.17437 78.0426 5.06445 78.8654 5.06445ZM79.4825 11.8013C77.9002 11.8641 76.8005 12.1154 76.1834 12.5551C75.5822 12.9948 75.2815 13.6151 75.2815 14.416C75.2815 15.1227 75.4952 15.6409 75.9224 15.9707C76.3654 16.3004 76.9271 16.4653 77.6075 16.4653C78.6835 16.4653 79.5775 16.1748 80.2895 15.5938C81.0015 14.997 81.3575 14.0862 81.3575 12.8613V11.7307L79.4825 11.8013Z" fill="#0084FF"/>
<path d="M94.8991 2.70889C93.9972 2.70889 93.1823 2.86593 92.4545 3.18C91.7266 3.47837 91.1095 3.92593 90.6032 4.52267C90.0969 5.1037 89.7092 5.81822 89.4402 6.66622C89.1712 7.49852 89.0367 8.44074 89.0367 9.49289C89.0367 10.8748 89.2503 12.0761 89.6776 13.0969C90.1206 14.1176 90.7693 14.9028 91.6238 15.4524C92.494 16.0021 93.5779 16.2769 94.8754 16.2769C95.6191 16.2769 96.3232 16.2141 96.9877 16.0884C97.6523 15.9628 98.301 15.8058 98.934 15.6173V17.4547C98.301 17.6902 97.6444 17.863 96.964 17.9729C96.2994 18.0828 95.5004 18.1378 94.5668 18.1378C92.8421 18.1378 91.4023 17.7844 90.2472 17.0778C89.0921 16.3711 88.2218 15.3661 87.6364 14.0627C87.0668 12.7593 86.782 11.2281 86.782 9.46933C86.782 8.19733 86.956 7.03526 87.3041 5.98311C87.668 4.93096 88.1902 4.02015 88.8706 3.25067C89.5668 2.48119 90.4212 1.8923 91.4339 1.484C92.4466 1.06 93.6096 0.848 94.9229 0.848C95.7931 0.848 96.6317 0.934371 97.4387 1.10711C98.2457 1.27985 98.9656 1.52326 99.5985 1.83733L98.7441 3.62756C98.2219 3.392 97.6365 3.18 96.9877 2.99156C96.3548 2.80311 95.6586 2.70889 94.8991 2.70889Z" fill="#0084FF"/>
<path d="M104.436 17.9022H102.348V0H104.436V17.9022Z" fill="#0084FF"/>
<path d="M119.527 11.5658C119.527 12.6179 119.385 13.5523 119.1 14.3689C118.831 15.1698 118.435 15.8529 117.913 16.4182C117.407 16.9836 116.782 17.4154 116.038 17.7138C115.31 17.9964 114.495 18.1378 113.593 18.1378C112.755 18.1378 111.98 17.9964 111.267 17.7138C110.555 17.4154 109.938 16.9836 109.416 16.4182C108.894 15.8529 108.483 15.1698 108.182 14.3689C107.897 13.5523 107.755 12.6179 107.755 11.5658C107.755 10.1681 107.992 8.99037 108.467 8.03244C108.942 7.05882 109.622 6.32074 110.508 5.81822C111.394 5.3 112.446 5.04089 113.665 5.04089C114.82 5.04089 115.832 5.3 116.703 5.81822C117.589 6.32074 118.277 7.05882 118.768 8.03244C119.274 8.99037 119.527 10.1681 119.527 11.5658ZM109.915 11.5658C109.915 12.5551 110.041 13.4188 110.294 14.1569C110.563 14.8793 110.975 15.4367 111.529 15.8293C112.082 16.2219 112.786 16.4182 113.641 16.4182C114.495 16.4182 115.199 16.2219 115.753 15.8293C116.307 15.4367 116.711 14.8793 116.964 14.1569C117.233 13.4188 117.367 12.5551 117.367 11.5658C117.367 10.5607 117.233 9.70489 116.964 8.99822C116.695 8.29156 116.283 7.74978 115.73 7.37289C115.192 6.9803 114.487 6.784 113.617 6.784C112.32 6.784 111.378 7.208 110.793 8.056C110.207 8.904 109.915 10.0739 109.915 11.5658Z" fill="#0084FF"/>
<path d="M133.47 5.27645V17.9022H131.761L131.453 16.2298H131.358C131.089 16.6695 130.741 17.0307 130.314 17.3133C129.886 17.596 129.42 17.8001 128.913 17.9258C128.407 18.0671 127.877 18.1378 127.323 18.1378C126.31 18.1378 125.456 17.9807 124.76 17.6667C124.079 17.3369 123.565 16.8344 123.217 16.1591C122.869 15.4839 122.695 14.6123 122.695 13.5444V5.27645H124.807V13.4031C124.807 14.4081 125.037 15.1619 125.496 15.6644C125.954 16.167 126.666 16.4182 127.632 16.4182C128.581 16.4182 129.325 16.2455 129.863 15.9C130.416 15.5388 130.804 15.0206 131.026 14.3453C131.263 13.6544 131.382 12.8221 131.382 11.8484V5.27645H133.47Z" fill="#0084FF"/>
<path d="M142.019 18.1378C140.436 18.1378 139.17 17.596 138.221 16.5124C137.272 15.4132 136.797 13.78 136.797 11.6129C136.797 9.44578 137.272 7.81259 138.221 6.71333C139.186 5.59837 140.46 5.04089 142.042 5.04089C142.707 5.04089 143.284 5.12726 143.775 5.3C144.265 5.45704 144.693 5.67689 145.057 5.95956C145.42 6.24222 145.729 6.5563 145.982 6.90178H146.125C146.109 6.69763 146.077 6.39926 146.03 6.00667C145.998 5.59837 145.982 5.27645 145.982 5.04089V0H148.071V17.9022H146.386L146.077 16.2062H145.982C145.729 16.5674 145.42 16.8972 145.057 17.1956C144.693 17.4782 144.257 17.7059 143.751 17.8787C143.261 18.0514 142.683 18.1378 142.019 18.1378ZM142.351 16.4182C143.696 16.4182 144.637 16.057 145.175 15.3347C145.729 14.5966 146.006 13.4895 146.006 12.0133V11.6364C146.006 10.0661 145.745 8.86474 145.223 8.03244C144.701 7.18444 143.735 6.76045 142.327 6.76045C141.204 6.76045 140.357 7.208 139.788 8.10311C139.234 8.98252 138.957 10.1681 138.957 11.66C138.957 13.1676 139.234 14.3375 139.788 15.1698C140.357 16.0021 141.212 16.4182 142.351 16.4182Z" fill="#0084FF"/>
</svg>
