<svg width="126" height="19" viewBox="0 0 126 19" fill="none" xmlns="http://www.w3.org/2000/svg">
<path d="M120.016 5.13599C121.12 5.13599 122.064 5.37599 122.848 5.85599C123.648 6.33599 124.256 7.01599 124.672 7.89599C125.104 8.75999 125.32 9.77599 125.32 10.944V12.216H116.512C116.544 13.672 116.912 14.784 117.616 15.552C118.336 16.304 119.336 16.68 120.616 16.68C121.432 16.68 122.152 16.608 122.776 16.464C123.416 16.304 124.072 16.08 124.744 15.792V17.64C124.088 17.928 123.44 18.136 122.8 18.264C122.16 18.408 121.4 18.48 120.52 18.48C119.304 18.48 118.224 18.232 117.28 17.736C116.352 17.24 115.624 16.504 115.096 15.528C114.584 14.536 114.328 13.328 114.328 11.904C114.328 10.496 114.56 9.28799 115.024 8.27999C115.504 7.27199 116.168 6.49599 117.016 5.95199C117.88 5.40799 118.88 5.13599 120.016 5.13599ZM119.992 6.86399C118.984 6.86399 118.184 7.19199 117.592 7.84799C117.016 8.48799 116.672 9.38399 116.56 10.536H123.112C123.112 9.79999 123 9.15999 122.776 8.61599C122.552 8.07199 122.208 7.64799 121.744 7.34399C121.296 7.02399 120.712 6.86399 119.992 6.86399Z" fill="#0084FF"/>
<path d="M106.469 5.13599C107.573 5.13599 108.517 5.37599 109.301 5.85599C110.101 6.33599 110.709 7.01599 111.125 7.89599C111.557 8.75999 111.773 9.77599 111.773 10.944V12.216H102.965C102.997 13.672 103.365 14.784 104.069 15.552C104.789 16.304 105.789 16.68 107.069 16.68C107.885 16.68 108.605 16.608 109.229 16.464C109.869 16.304 110.525 16.08 111.197 15.792V17.64C110.541 17.928 109.893 18.136 109.253 18.264C108.613 18.408 107.853 18.48 106.973 18.48C105.757 18.48 104.677 18.232 103.733 17.736C102.805 17.24 102.077 16.504 101.549 15.528C101.037 14.536 100.781 13.328 100.781 11.904C100.781 10.496 101.013 9.28799 101.477 8.27999C101.957 7.27199 102.621 6.49599 103.469 5.95199C104.333 5.40799 105.333 5.13599 106.469 5.13599ZM106.445 6.86399C105.437 6.86399 104.637 7.19199 104.045 7.84799C103.469 8.48799 103.125 9.38399 103.013 10.536H109.565C109.565 9.79999 109.453 9.15999 109.229 8.61599C109.005 8.07199 108.661 7.64799 108.197 7.34399C107.749 7.02399 107.165 6.86399 106.445 6.86399Z" fill="#0084FF"/>
<path d="M98.3372 13.656C98.3372 14.68 98.0892 15.552 97.5932 16.272C97.0972 16.976 96.3852 17.52 95.4572 17.904C94.5452 18.288 93.4652 18.48 92.2172 18.48C91.5772 18.48 90.9612 18.448 90.3692 18.384C89.7932 18.32 89.2652 18.232 88.7852 18.12C88.3052 17.992 87.8812 17.84 87.5132 17.664V15.6C88.0892 15.856 88.8012 16.088 89.6492 16.296C90.5132 16.504 91.4012 16.608 92.3132 16.608C93.1612 16.608 93.8732 16.496 94.4492 16.272C95.0252 16.048 95.4572 15.728 95.7452 15.312C96.0332 14.896 96.1772 14.408 96.1772 13.848C96.1772 13.288 96.0572 12.816 95.8172 12.432C95.5772 12.048 95.1612 11.696 94.5692 11.376C93.9932 11.04 93.1852 10.688 92.1452 10.32C91.4092 10.048 90.7612 9.76002 90.2012 9.45601C89.6572 9.13601 89.2012 8.77601 88.8332 8.37601C88.4652 7.97601 88.1852 7.52001 87.9932 7.00801C87.8172 6.49601 87.7292 5.90401 87.7292 5.23201C87.7292 4.32001 87.9612 3.54401 88.4252 2.90401C88.8892 2.24801 89.5292 1.74401 90.3452 1.39201C91.1772 1.04001 92.1292 0.864014 93.2012 0.864014C94.1452 0.864014 95.0092 0.952013 95.7932 1.12801C96.5772 1.30401 97.2892 1.53601 97.9292 1.82401L97.2572 3.67201C96.6652 3.41601 96.0172 3.20001 95.3132 3.02401C94.6252 2.84801 93.9052 2.76001 93.1532 2.76001C92.4332 2.76001 91.8332 2.86401 91.3532 3.07201C90.8732 3.28001 90.5132 3.57601 90.2732 3.96001C90.0332 4.32801 89.9132 4.76001 89.9132 5.25601C89.9132 5.83201 90.0332 6.31201 90.2732 6.69601C90.5132 7.08001 90.9052 7.42401 91.4492 7.72801C91.9932 8.03201 92.7292 8.36001 93.6572 8.71201C94.6652 9.08001 95.5132 9.48002 96.2012 9.91202C96.9052 10.328 97.4332 10.832 97.7852 11.424C98.1532 12.016 98.3372 12.76 98.3372 13.656Z" fill="#0084FF"/>
<path d="M79.7479 5.16003C81.3159 5.16003 82.4759 5.50403 83.2279 6.19203C83.9799 6.88003 84.3559 7.97603 84.3559 9.48003V18.24H82.8199L82.4119 16.416H82.3159C81.9479 16.88 81.5639 17.272 81.1639 17.592C80.7799 17.896 80.3319 18.12 79.8199 18.264C79.3239 18.408 78.7159 18.48 77.9959 18.48C77.2279 18.48 76.5319 18.344 75.9079 18.072C75.2999 17.8 74.8199 17.384 74.4679 16.824C74.1159 16.248 73.9399 15.528 73.9399 14.664C73.9399 13.384 74.4439 12.4 75.4519 11.712C76.4599 11.008 78.0119 10.624 80.1079 10.56L82.2919 10.488V9.72003C82.2919 8.64803 82.0599 7.90403 81.5959 7.48803C81.1319 7.07203 80.4759 6.86403 79.6279 6.86403C78.9559 6.86403 78.3159 6.96803 77.7079 7.17603C77.0999 7.36803 76.5319 7.59203 76.0039 7.84803L75.3559 6.26403C75.9159 5.96003 76.5799 5.70403 77.3479 5.49603C78.1159 5.27203 78.9159 5.16003 79.7479 5.16003ZM80.3719 12.024C78.7719 12.088 77.6599 12.344 77.0359 12.792C76.4279 13.24 76.1239 13.872 76.1239 14.688C76.1239 15.408 76.3399 15.936 76.7719 16.272C77.2199 16.608 77.7879 16.776 78.4759 16.776C79.5639 16.776 80.4679 16.48 81.1879 15.888C81.9079 15.28 82.2679 14.352 82.2679 13.104V11.952L80.3719 12.024Z" fill="#0084FF"/>
<path d="M66.5583 5.13599C68.0143 5.13599 69.1023 5.51199 69.8223 6.26399C70.5423 6.99999 70.9023 8.19999 70.9023 9.86399V18.24H68.8143V9.95999C68.8143 8.95199 68.5983 8.19199 68.1663 7.67999C67.7503 7.16799 67.0943 6.91199 66.1983 6.91199C64.9503 6.91199 64.0543 7.27199 63.5103 7.99199C62.9823 8.71199 62.7183 9.75999 62.7183 11.136V18.24H60.6303V9.95999C60.6303 9.28799 60.5343 8.72799 60.3423 8.27999C60.1503 7.81599 59.8623 7.47199 59.4783 7.24799C59.0943 7.02399 58.5983 6.91199 57.9903 6.91199C57.1263 6.91199 56.4463 7.09599 55.9503 7.46399C55.4543 7.81599 55.0943 8.33599 54.8703 9.02399C54.6623 9.71199 54.5583 10.56 54.5583 11.568V18.24H52.4463V5.37599H54.1503L54.4623 7.12799H54.5823C54.8543 6.67999 55.1823 6.31199 55.5663 6.02399C55.9663 5.71999 56.4063 5.49599 56.8863 5.35199C57.3663 5.20799 57.8623 5.13599 58.3743 5.13599C59.3663 5.13599 60.1903 5.31199 60.8463 5.66399C61.5183 6.01599 62.0063 6.55999 62.3103 7.29599H62.4303C62.8623 6.55999 63.4463 6.01599 64.1823 5.66399C64.9343 5.31199 65.7263 5.13599 66.5583 5.13599Z" fill="#0084FF"/>
<path d="M48.5322 5.13599C48.7722 5.13599 49.0282 5.15199 49.3002 5.18399C49.5882 5.19999 49.8362 5.23199 50.0442 5.27999L49.7802 7.22399C49.5722 7.17599 49.3402 7.13599 49.0842 7.10399C48.8442 7.07199 48.6122 7.05599 48.3882 7.05599C47.8922 7.05599 47.4202 7.15999 46.9722 7.36799C46.5242 7.57599 46.1242 7.87199 45.7722 8.25599C45.4202 8.62399 45.1402 9.07199 44.9322 9.59999C44.7402 10.128 44.6442 10.72 44.6442 11.376V18.24H42.5322V5.37599H44.2602L44.5002 7.72799H44.5962C44.8682 7.24799 45.1962 6.81599 45.5802 6.43199C45.9642 6.03199 46.4042 5.71999 46.9002 5.49599C47.3962 5.25599 47.9402 5.13599 48.5322 5.13599Z" fill="#0084FF"/>
<path d="M33.9511 5.16003C35.5191 5.16003 36.6791 5.50403 37.4311 6.19203C38.1831 6.88003 38.5591 7.97603 38.5591 9.48003V18.24H37.0231L36.6151 16.416H36.5191C36.1511 16.88 35.7671 17.272 35.3671 17.592C34.9831 17.896 34.5351 18.12 34.0231 18.264C33.5271 18.408 32.9191 18.48 32.1991 18.48C31.4311 18.48 30.7351 18.344 30.1111 18.072C29.5031 17.8 29.0231 17.384 28.6711 16.824C28.3191 16.248 28.1431 15.528 28.1431 14.664C28.1431 13.384 28.6471 12.4 29.6551 11.712C30.6631 11.008 32.2151 10.624 34.3111 10.56L36.4951 10.488V9.72003C36.4951 8.64803 36.2631 7.90403 35.7991 7.48803C35.3351 7.07203 34.6791 6.86403 33.8311 6.86403C33.1591 6.86403 32.5191 6.96803 31.9111 7.17603C31.3031 7.36803 30.7351 7.59203 30.2071 7.84803L29.5591 6.26403C30.1191 5.96003 30.7831 5.70403 31.5511 5.49603C32.3191 5.27203 33.1191 5.16003 33.9511 5.16003ZM34.5751 12.024C32.9751 12.088 31.8631 12.344 31.2391 12.792C30.6311 13.24 30.3271 13.872 30.3271 14.688C30.3271 15.408 30.5431 15.936 30.9751 16.272C31.4231 16.608 31.9911 16.776 32.6791 16.776C33.7671 16.776 34.6711 16.48 35.3911 15.888C36.1111 15.28 36.4711 14.352 36.4711 13.104V11.952L34.5751 12.024Z" fill="#0084FF"/>
<path d="M16.3552 5.352C16.3552 5.656 16.3392 5.968 16.3072 6.288C16.2912 6.608 16.2672 6.896 16.2352 7.152H16.3792C16.6512 6.704 16.9952 6.336 17.4112 6.048C17.8272 5.76 18.2912 5.544 18.8032 5.4C19.3152 5.24 19.8432 5.16 20.3872 5.16C21.4272 5.16 22.2912 5.328 22.9792 5.664C23.6832 5.984 24.2112 6.488 24.5632 7.176C24.9152 7.864 25.0912 8.76 25.0912 9.864V18.24H23.0032V10.008C23.0032 8.968 22.7712 8.192 22.3072 7.68C21.8432 7.168 21.1152 6.912 20.1232 6.912C19.1632 6.912 18.4112 7.096 17.8672 7.464C17.3232 7.816 16.9312 8.344 16.6912 9.048C16.4672 9.736 16.3552 10.584 16.3552 11.592V18.24H14.2432V0H16.3552V5.352Z" fill="#0084FF"/>
<path d="M4.536 1.104C6.776 1.104 8.408 1.544 9.432 2.424C10.456 3.304 10.968 4.544 10.968 6.144C10.968 6.848 10.848 7.528 10.608 8.184C10.384 8.824 10.008 9.40001 9.48 9.91201C8.952 10.424 8.248 10.832 7.368 11.136C6.488 11.424 5.408 11.568 4.128 11.568H2.16V18.24H0V1.104H4.536ZM4.344 2.952H2.16V9.72001H3.888C4.976 9.72001 5.88 9.608 6.6 9.384C7.32 9.144 7.856 8.768 8.208 8.256C8.56 7.744 8.736 7.072 8.736 6.24001C8.736 5.136 8.384 4.312 7.68 3.768C6.976 3.224 5.864 2.952 4.344 2.952Z" fill="#0084FF"/>
</svg>
