<svg width="135" height="19" viewBox="0 0 135 19" fill="none" xmlns="http://www.w3.org/2000/svg">
<path d="M132.726 16.752C133.046 16.752 133.374 16.728 133.71 16.68C134.046 16.616 134.318 16.552 134.526 16.488V18.096C134.302 18.208 133.982 18.296 133.566 18.36C133.15 18.44 132.75 18.4799 132.366 18.4799C131.694 18.4799 131.07 18.368 130.494 18.144C129.934 17.904 129.478 17.496 129.126 16.92C128.774 16.344 128.598 15.536 128.598 14.496V7.00795H126.774V5.99995L128.622 5.15995L129.462 2.42395H130.71V5.37595H134.43V7.00795H130.71V14.448C130.71 15.232 130.894 15.816 131.262 16.2C131.646 16.568 132.134 16.752 132.726 16.752Z" fill="#0084FF"/>
<path d="M125.322 14.688C125.322 15.52 125.114 16.216 124.698 16.776C124.282 17.336 123.69 17.76 122.922 18.048C122.154 18.336 121.242 18.48 120.186 18.48C119.29 18.48 118.514 18.408 117.858 18.264C117.218 18.12 116.65 17.92 116.154 17.664V15.744C116.666 16 117.282 16.24 118.002 16.464C118.738 16.672 119.482 16.776 120.234 16.776C121.306 16.776 122.082 16.608 122.562 16.272C123.042 15.92 123.282 15.456 123.282 14.88C123.282 14.56 123.194 14.272 123.018 14.016C122.842 13.76 122.522 13.504 122.058 13.248C121.61 12.992 120.962 12.704 120.114 12.384C119.282 12.064 118.57 11.744 117.978 11.424C117.386 11.104 116.93 10.72 116.61 10.272C116.29 9.82399 116.13 9.24799 116.13 8.54399C116.13 7.45599 116.57 6.61599 117.45 6.02399C118.346 5.43199 119.514 5.13599 120.954 5.13599C121.738 5.13599 122.466 5.21599 123.138 5.37599C123.826 5.51999 124.466 5.72799 125.058 5.99998L124.338 7.67999C123.986 7.51999 123.61 7.38399 123.21 7.27199C122.826 7.14399 122.434 7.04799 122.034 6.98399C121.634 6.90399 121.226 6.86399 120.81 6.86399C119.946 6.86399 119.282 7.00799 118.818 7.29599C118.37 7.56799 118.146 7.94399 118.146 8.42399C118.146 8.77599 118.25 9.07999 118.458 9.33599C118.666 9.57599 119.01 9.81599 119.49 10.056C119.986 10.28 120.642 10.552 121.458 10.872C122.274 11.176 122.97 11.488 123.546 11.808C124.122 12.128 124.562 12.52 124.866 12.984C125.17 13.432 125.322 14 125.322 14.688Z" fill="#0084FF"/>
<path d="M108.365 5.16003C109.933 5.16003 111.093 5.50403 111.845 6.19203C112.597 6.88003 112.973 7.97603 112.973 9.48003V18.24H111.437L111.029 16.416H110.933C110.565 16.88 110.181 17.272 109.781 17.592C109.397 17.896 108.949 18.12 108.437 18.264C107.941 18.408 107.333 18.48 106.613 18.48C105.845 18.48 105.149 18.344 104.525 18.072C103.917 17.8 103.437 17.384 103.085 16.824C102.733 16.248 102.557 15.528 102.557 14.664C102.557 13.384 103.061 12.4 104.069 11.712C105.077 11.008 106.629 10.624 108.725 10.56L110.909 10.488V9.72003C110.909 8.64803 110.677 7.90403 110.213 7.48803C109.749 7.07203 109.093 6.86403 108.245 6.86403C107.573 6.86403 106.933 6.96803 106.325 7.17603C105.717 7.36803 105.149 7.59203 104.621 7.84803L103.973 6.26403C104.533 5.96003 105.197 5.70403 105.965 5.49603C106.733 5.27203 107.533 5.16003 108.365 5.16003ZM108.989 12.024C107.389 12.088 106.277 12.344 105.653 12.792C105.045 13.24 104.741 13.872 104.741 14.688C104.741 15.408 104.957 15.936 105.389 16.272C105.837 16.608 106.405 16.776 107.093 16.776C108.181 16.776 109.085 16.48 109.805 15.888C110.525 15.28 110.885 14.352 110.885 13.104V11.952L108.989 12.024Z" fill="#0084FF"/>
<path d="M95.9609 2.76001C95.0489 2.76001 94.2249 2.92001 93.4889 3.24001C92.7529 3.54401 92.1289 4.00001 91.6169 4.60801C91.1049 5.20001 90.7129 5.92801 90.4409 6.79201C90.1689 7.64001 90.0329 8.60001 90.0329 9.67201C90.0329 11.08 90.2489 12.304 90.6809 13.344C91.1289 14.384 91.7849 15.184 92.6489 15.744C93.5289 16.304 94.6249 16.584 95.9369 16.584C96.6889 16.584 97.4009 16.52 98.0729 16.392C98.7449 16.264 99.4009 16.104 100.041 15.912V17.784C99.4009 18.024 98.7369 18.2 98.0489 18.312C97.3769 18.424 96.5689 18.48 95.6249 18.48C93.8809 18.48 92.4249 18.12 91.2569 17.4C90.0889 16.68 89.2089 15.656 88.6169 14.328C88.0409 13 87.7529 11.44 87.7529 9.64801C87.7529 8.35201 87.9289 7.16801 88.2809 6.09601C88.6489 5.02401 89.1769 4.09601 89.8649 3.31201C90.5689 2.52801 91.4329 1.92801 92.4569 1.51201C93.4809 1.08001 94.6569 0.864014 95.9849 0.864014C96.8649 0.864014 97.7129 0.952013 98.5289 1.12801C99.3449 1.30401 100.073 1.55201 100.713 1.87201L99.8489 3.69601C99.3209 3.45601 98.7289 3.24001 98.0729 3.04801C97.4329 2.85601 96.7289 2.76001 95.9609 2.76001Z" fill="#0084FF"/>
<path d="M79.7479 5.16003C81.3159 5.16003 82.4759 5.50403 83.2279 6.19203C83.9799 6.88003 84.3559 7.97603 84.3559 9.48003V18.24H82.8199L82.4119 16.416H82.3159C81.9479 16.88 81.5639 17.272 81.1639 17.592C80.7799 17.896 80.3319 18.12 79.8199 18.264C79.3239 18.408 78.7159 18.48 77.9959 18.48C77.2279 18.48 76.5319 18.344 75.9079 18.072C75.2999 17.8 74.8199 17.384 74.4679 16.824C74.1159 16.248 73.9399 15.528 73.9399 14.664C73.9399 13.384 74.4439 12.4 75.4519 11.712C76.4599 11.008 78.0119 10.624 80.1079 10.56L82.2919 10.488V9.72003C82.2919 8.64803 82.0599 7.90403 81.5959 7.48803C81.1319 7.07203 80.4759 6.86403 79.6279 6.86403C78.9559 6.86403 78.3159 6.96803 77.7079 7.17603C77.0999 7.36803 76.5319 7.59203 76.0039 7.84803L75.3559 6.26403C75.9159 5.96003 76.5799 5.70403 77.3479 5.49603C78.1159 5.27203 78.9159 5.16003 79.7479 5.16003ZM80.3719 12.024C78.7719 12.088 77.6599 12.344 77.0359 12.792C76.4279 13.24 76.1239 13.872 76.1239 14.688C76.1239 15.408 76.3399 15.936 76.7719 16.272C77.2199 16.608 77.7879 16.776 78.4759 16.776C79.5639 16.776 80.4679 16.48 81.1879 15.888C81.9079 15.28 82.2679 14.352 82.2679 13.104V11.952L80.3719 12.024Z" fill="#0084FF"/>
<path d="M66.5583 5.13599C68.0143 5.13599 69.1023 5.51199 69.8223 6.26399C70.5423 6.99999 70.9023 8.19999 70.9023 9.86399V18.24H68.8143V9.95999C68.8143 8.95199 68.5983 8.19199 68.1663 7.67999C67.7503 7.16799 67.0943 6.91199 66.1983 6.91199C64.9503 6.91199 64.0543 7.27199 63.5103 7.99199C62.9823 8.71199 62.7183 9.75999 62.7183 11.136V18.24H60.6303V9.95999C60.6303 9.28799 60.5343 8.72799 60.3423 8.27999C60.1503 7.81599 59.8623 7.47199 59.4783 7.24799C59.0943 7.02399 58.5983 6.91199 57.9903 6.91199C57.1263 6.91199 56.4463 7.09599 55.9503 7.46399C55.4543 7.81599 55.0943 8.33599 54.8703 9.02399C54.6623 9.71199 54.5583 10.56 54.5583 11.568V18.24H52.4463V5.37599H54.1503L54.4623 7.12799H54.5823C54.8543 6.67999 55.1823 6.31199 55.5663 6.02399C55.9663 5.71999 56.4063 5.49599 56.8863 5.35199C57.3663 5.20799 57.8623 5.13599 58.3743 5.13599C59.3663 5.13599 60.1903 5.31199 60.8463 5.66399C61.5183 6.01599 62.0063 6.55999 62.3103 7.29599H62.4303C62.8623 6.55999 63.4463 6.01599 64.1823 5.66399C64.9343 5.31199 65.7263 5.13599 66.5583 5.13599Z" fill="#0084FF"/>
<path d="M48.5322 5.13599C48.7722 5.13599 49.0282 5.15199 49.3002 5.18399C49.5882 5.19999 49.8362 5.23199 50.0442 5.27999L49.7802 7.22399C49.5722 7.17599 49.3402 7.13599 49.0842 7.10399C48.8442 7.07199 48.6122 7.05599 48.3882 7.05599C47.8922 7.05599 47.4202 7.15999 46.9722 7.36799C46.5242 7.57599 46.1242 7.87199 45.7722 8.25599C45.4202 8.62399 45.1402 9.07199 44.9322 9.59999C44.7402 10.128 44.6442 10.72 44.6442 11.376V18.24H42.5322V5.37599H44.2602L44.5002 7.72799H44.5962C44.8682 7.24799 45.1962 6.81599 45.5802 6.43199C45.9642 6.03199 46.4042 5.71999 46.9002 5.49599C47.3962 5.25599 47.9402 5.13599 48.5322 5.13599Z" fill="#0084FF"/>
<path d="M33.9511 5.16003C35.5191 5.16003 36.6791 5.50403 37.4311 6.19203C38.1831 6.88003 38.5591 7.97603 38.5591 9.48003V18.24H37.0231L36.6151 16.416H36.5191C36.1511 16.88 35.7671 17.272 35.3671 17.592C34.9831 17.896 34.5351 18.12 34.0231 18.264C33.5271 18.408 32.9191 18.48 32.1991 18.48C31.4311 18.48 30.7351 18.344 30.1111 18.072C29.5031 17.8 29.0231 17.384 28.6711 16.824C28.3191 16.248 28.1431 15.528 28.1431 14.664C28.1431 13.384 28.6471 12.4 29.6551 11.712C30.6631 11.008 32.2151 10.624 34.3111 10.56L36.4951 10.488V9.72003C36.4951 8.64803 36.2631 7.90403 35.7991 7.48803C35.3351 7.07203 34.6791 6.86403 33.8311 6.86403C33.1591 6.86403 32.5191 6.96803 31.9111 7.17603C31.3031 7.36803 30.7351 7.59203 30.2071 7.84803L29.5591 6.26403C30.1191 5.96003 30.7831 5.70403 31.5511 5.49603C32.3191 5.27203 33.1191 5.16003 33.9511 5.16003ZM34.5751 12.024C32.9751 12.088 31.8631 12.344 31.2391 12.792C30.6311 13.24 30.3271 13.872 30.3271 14.688C30.3271 15.408 30.5431 15.936 30.9751 16.272C31.4231 16.608 31.9911 16.776 32.6791 16.776C33.7671 16.776 34.6711 16.48 35.3911 15.888C36.1111 15.28 36.4711 14.352 36.4711 13.104V11.952L34.5751 12.024Z" fill="#0084FF"/>
<path d="M16.3552 5.352C16.3552 5.656 16.3392 5.968 16.3072 6.288C16.2912 6.608 16.2672 6.896 16.2352 7.152H16.3792C16.6512 6.704 16.9952 6.336 17.4112 6.048C17.8272 5.76 18.2912 5.544 18.8032 5.4C19.3152 5.24 19.8432 5.16 20.3872 5.16C21.4272 5.16 22.2912 5.328 22.9792 5.664C23.6832 5.984 24.2112 6.488 24.5632 7.176C24.9152 7.864 25.0912 8.76 25.0912 9.864V18.24H23.0032V10.008C23.0032 8.968 22.7712 8.192 22.3072 7.68C21.8432 7.168 21.1152 6.912 20.1232 6.912C19.1632 6.912 18.4112 7.096 17.8672 7.464C17.3232 7.816 16.9312 8.344 16.6912 9.048C16.4672 9.736 16.3552 10.584 16.3552 11.592V18.24H14.2432V0H16.3552V5.352Z" fill="#0084FF"/>
<path d="M4.536 1.104C6.776 1.104 8.408 1.544 9.432 2.424C10.456 3.304 10.968 4.544 10.968 6.144C10.968 6.848 10.848 7.528 10.608 8.184C10.384 8.824 10.008 9.40001 9.48 9.91201C8.952 10.424 8.248 10.832 7.368 11.136C6.488 11.424 5.408 11.568 4.128 11.568H2.16V18.24H0V1.104H4.536ZM4.344 2.952H2.16V9.72001H3.888C4.976 9.72001 5.88 9.608 6.6 9.384C7.32 9.144 7.856 8.768 8.208 8.256C8.56 7.744 8.736 7.072 8.736 6.24001C8.736 5.136 8.384 4.312 7.68 3.768C6.976 3.224 5.864 2.952 4.344 2.952Z" fill="#0084FF"/>
</svg>
